<svg width="62" height="52" viewBox="0 0 62 52" fill="none" xmlns="http://www.w3.org/2000/svg">
<g filter="url(#filter0_d_313_5)">
<path d="M57.9159 27.4228L57.9818 40.9256C57.9919 42.9812 56.3336 44.6557 54.278 44.6658C52.2224 44.6758 50.5479 43.0175 50.5378 40.9619L50.4681 26.6777C50.4493 22.8235 47.3095 19.7142 43.4553 19.7331C39.601 19.7519 36.4918 22.8916 36.5106 26.7459L36.5804 41.0301C36.5904 43.0857 34.9321 44.7602 32.8765 44.7703C30.8209 44.7803 29.1464 43.122 29.1364 41.0664L29.0704 27.5636C29.0316 19.5981 35.4573 13.1093 43.4228 13.0704C51.3882 13.0315 57.877 19.4573 57.9159 27.4228Z" fill="white"/>
</g>
<g filter="url(#filter1_d_313_5)">
<path d="M3.52979 20.4046V5.04726C3.52979 2.70935 5.42504 0.814091 7.76295 0.814091C10.1009 0.814091 11.9961 2.70935 11.9961 5.04726V21.2932C11.9961 25.6768 15.5497 29.2304 19.9333 29.2304C24.3169 29.2304 27.8705 25.6768 27.8705 21.2932V5.04726C27.8705 2.70935 29.7658 0.814091 32.1037 0.814091C34.4416 0.814091 36.3368 2.70935 36.3368 5.04726V20.4046C36.3368 29.464 28.9927 36.8081 19.9333 36.8081C10.8739 36.8081 3.52979 29.464 3.52979 20.4046Z" fill="white"/>
</g>
<defs>
<filter id="filter0_d_313_5" x="25.8423" y="13.0702" width="35.3677" height="38.1561" filterUnits="userSpaceOnUse" color-interpolation-filters="sRGB">
<feFlood flood-opacity="0" result="BackgroundImageFix"/>
<feColorMatrix in="SourceAlpha" type="matrix" values="0 0 0 0 0 0 0 0 0 0 0 0 0 0 0 0 0 0 127 0" result="hardAlpha"/>
<feOffset dy="3.22802"/>
<feGaussianBlur stdDeviation="1.61401"/>
<feComposite in2="hardAlpha" operator="out"/>
<feColorMatrix type="matrix" values="0 0 0 0 0 0 0 0 0 0 0 0 0 0 0 0 0 0 0.25 0"/>
<feBlend mode="normal" in2="BackgroundImageFix" result="effect1_dropShadow_313_5"/>
<feBlend mode="normal" in="SourceGraphic" in2="effect1_dropShadow_313_5" result="shape"/>
</filter>
<filter id="filter1_d_313_5" x="0.301768" y="0.814091" width="39.263" height="42.4501" filterUnits="userSpaceOnUse" color-interpolation-filters="sRGB">
<feFlood flood-opacity="0" result="BackgroundImageFix"/>
<feColorMatrix in="SourceAlpha" type="matrix" values="0 0 0 0 0 0 0 0 0 0 0 0 0 0 0 0 0 0 127 0" result="hardAlpha"/>
<feOffset dy="3.22802"/>
<feGaussianBlur stdDeviation="1.61401"/>
<feComposite in2="hardAlpha" operator="out"/>
<feColorMatrix type="matrix" values="0 0 0 0 0 0 0 0 0 0 0 0 0 0 0 0 0 0 0.25 0"/>
<feBlend mode="normal" in2="BackgroundImageFix" result="effect1_dropShadow_313_5"/>
<feBlend mode="normal" in="SourceGraphic" in2="effect1_dropShadow_313_5" result="shape"/>
</filter>
</defs>
</svg>
